<?xml version="1.0" encoding="UTF-8" standalone="no"?><svg xmlns="http://www.w3.org/2000/svg" xmlns:xlink="http://www.w3.org/1999/xlink" fill="#ffde59" height="500" preserveAspectRatio="xMidYMid meet" version="1" viewBox="0.0 0.0 500.0 500.0" width="500" zoomAndPan="magnify"><g id="change1_1"><path d="M320.474 111L250 211.944 179.527 111 126.545 111 223.509 250 126.545 389 179.527 389 250 288.056 320.474 389 373.455 389 276.491 250 373.455 111z"/><path d="M250,0C183.223,0,120.442,26.005,73.223,73.223S0,183.223,0,250s26.005,129.558,73.223,176.777S183.223,500,250,500 s129.558-26.005,176.777-73.223S500,316.777,500,250s-26.005-129.558-73.223-176.777S316.777,0,250,0z M250,462.963 c-117.428,0-212.963-95.535-212.963-212.963S132.572,37.037,250,37.037S462.963,132.572,462.963,250S367.428,462.963,250,462.963z"/></g></svg>